<?xml version="1.0" standalone="no"?>
<!DOCTYPE svg PUBLIC "-//W3C//DTD SVG 20010904//EN"
 "http://www.w3.org/TR/2001/REC-SVG-20010904/DTD/svg10.dtd">
<svg version="1.0" xmlns="http://www.w3.org/2000/svg"
 width="1200.000000pt" height="627.000000pt" viewBox="0 0 1200.000000 627.000000"
 preserveAspectRatio="xMidYMid meet">
<metadata>
Created by potrace 1.16, written by Peter Selinger 2001-2019
</metadata>
<g transform="translate(0.000000,627.000000) scale(0.100000,-0.100000)"
fill="#000000" stroke="none">
<path d="M1840 4373 c-159 -16 -286 -49 -558 -144 -332 -117 -348 -120 -652
-125 -140 -3 -269 -7 -287 -10 -37 -6 -90 -56 -98 -94 -9 -40 23 -316 43 -374
35 -104 139 -185 307 -240 103 -34 154 -63 182 -105 45 -66 21 -160 -49 -198
-27 -14 -63 -18 -185 -21 l-153 -4 0 -24 c0 -32 35 -101 69 -137 36 -40 68
-55 143 -67 170 -27 341 67 416 227 23 50 27 71 27 153 0 86 -3 101 -32 162
-54 114 -145 183 -333 253 -41 15 -87 36 -102 47 -27 19 -53 77 -61 139 l-5
36 171 6 c200 6 282 21 462 84 72 24 188 65 260 90 207 72 315 93 503 100 114
4 162 3 162 -5 0 -6 -67 -68 -150 -137 -82 -69 -150 -128 -150 -130 0 -3 78
-5 173 -5 l172 0 169 139 c93 77 177 153 187 168 27 40 25 111 -4 154 -43 65
-62 69 -342 67 -137 0 -266 -3 -285 -5z"/>
<path d="M6170 4174 c-36 -7 -107 -34 -158 -60 -185 -91 -318 -267 -358 -474
-57 -290 88 -590 348 -720 127 -63 188 -72 470 -68 234 3 246 4 316 30 106 38
177 83 257 164 232 232 256 609 54 876 -91 121 -249 223 -394 253 -93 20 -443
19 -535 -1z m531 -340 c177 -82 258 -298 175 -468 -34 -69 -119 -148 -182
-170 -67 -23 -439 -23 -505 -1 -120 41 -208 159 -217 290 -10 159 71 291 216
351 55 23 66 24 262 22 185 -3 210 -5 251 -24z"/>
<path d="M10882 4175 c-82 -18 -213 -82 -279 -137 -112 -93 -197 -228 -229
-364 -21 -88 -20 -249 1 -329 62 -234 243 -417 471 -475 66 -17 111 -20 305
-20 194 0 236 3 288 19 116 36 197 102 265 215 63 104 95 96 -366 96 l-403 0
-60 29 c-76 35 -147 112 -172 184 -27 79 -23 188 9 259 35 75 98 141 167 175
55 27 60 28 286 34 202 5 237 8 290 27 120 44 206 124 269 250 l26 52 -402 -1
c-302 0 -419 -4 -466 -14z"/>
<path d="M4900 3520 l0 -650 163 2 162 3 0 645 0 645 -162 3 -163 2 0 -650z"/>
<path d="M7622 4161 c2 -7 1012 -1085 1191 -1272 16 -17 35 -19 177 -19 l160
0 0 650 0 650 -160 0 -160 0 0 -416 c0 -229 -4 -414 -8 -412 -4 2 -187 189
-407 416 l-398 412 -199 0 c-117 0 -198 -4 -196 -9z"/>
<path d="M9610 3520 l0 -650 165 0 165 0 0 650 0 650 -165 0 -165 0 0 -650z"/>
<path d="M3120 3515 l0 -645 473 0 c259 0 498 4 531 10 132 21 264 114 325
229 17 32 31 62 31 65 0 3 -232 6 -515 6 l-515 0 0 490 0 490 -165 0 -165 0 0
-645z"/>
<path d="M2437 3834 c-85 -129 -169 -198 -585 -480 -329 -223 -1201 -847
-1196 -855 2 -4 58 -46 124 -93 74 -54 125 -84 132 -80 7 4 321 230 698 501
446 322 704 514 738 551 98 105 145 248 140 427 l-3 100 -48 -71z"/>
<path d="M1210 3655 l0 -105 118 59 c64 32 155 80 202 105 l85 46 -202 0 -203
0 0 -105z"/>
<path d="M7610 3095 l0 -225 210 0 c116 0 210 3 210 6 0 6 -411 444 -417 444
-2 0 -3 -101 -3 -225z"/>
<path d="M2435 3169 c-47 -71 -178 -199 -273 -266 -403 -284 -1032 -737 -1032
-743 0 -12 229 -176 241 -173 26 8 931 674 972 716 58 60 112 169 132 262 15
73 21 265 8 265 -5 0 -26 -28 -48 -61z"/>
<path d="M6963 2413 l-33 -13 0 -200 0 -200 30 0 c17 0 33 6 36 13 2 7 3 103
2 213 l-3 200 -32 -13z"/>
<path d="M10953 2413 c-31 -16 -33 -20 -33 -70 0 -50 -1 -53 -19 -43 -31 16
-93 12 -129 -10 -77 -47 -84 -201 -13 -264 25 -23 109 -33 139 -17 14 7 23 8
27 1 3 -5 19 -10 36 -10 l29 0 0 215 c0 118 -1 215 -2 214 -2 0 -18 -8 -35
-16z m-45 -176 c7 -6 12 -36 12 -82 0 -83 -11 -99 -67 -99 -66 0 -101 80 -67
151 25 49 80 63 122 30z"/>
<path d="M3234 2406 c-88 -39 -83 -142 8 -184 24 -10 64 -27 91 -36 45 -17 77
-47 77 -73 0 -30 -39 -53 -91 -53 -42 0 -55 5 -78 28 -24 23 -33 26 -55 19
-35 -12 -33 -23 9 -63 83 -78 249 -51 275 45 20 77 -16 120 -136 161 -87 30
-117 68 -79 100 22 18 90 16 119 -4 28 -18 45 -20 65 -7 20 13 -4 50 -44 67
-43 18 -120 17 -161 0z"/>
<path d="M5287 2408 c-10 -8 -17 -31 -19 -58 -3 -41 -5 -45 -31 -48 -23 -3
-28 -8 -25 -25 2 -16 11 -23 31 -25 l27 -3 0 -108 c0 -123 9 -141 72 -141 52
0 68 9 68 36 0 21 -3 24 -25 18 -45 -11 -55 9 -55 107 l0 89 40 0 c36 0 40 3
40 24 0 21 -5 25 -37 28 l-38 3 -3 58 c-3 59 -13 69 -45 45z"/>
<path d="M6164 2406 c-68 -30 -85 -106 -36 -155 15 -15 57 -38 93 -50 86 -28
109 -45 109 -80 0 -40 -28 -61 -83 -61 -35 0 -53 6 -77 26 -26 23 -36 25 -62
18 l-31 -9 29 -34 c35 -41 79 -61 139 -61 173 0 216 178 57 236 -114 42 -132
52 -132 77 0 14 7 30 15 37 22 18 92 16 113 -4 21 -18 49 -21 72 -6 13 8 10
15 -17 42 -29 28 -40 32 -95 35 -39 2 -75 -2 -94 -11z"/>
<path d="M7577 2408 c-10 -8 -17 -31 -19 -58 -3 -38 -7 -45 -25 -48 -35 -5
-32 -52 2 -52 l25 0 0 -108 c0 -124 9 -142 72 -142 52 0 68 9 68 36 0 21 -3
24 -25 18 -45 -11 -55 9 -55 107 l0 89 40 0 c36 0 40 3 40 24 0 21 -5 25 -37
28 l-38 3 -3 58 c-3 59 -13 69 -45 45z"/>
<path d="M9020 2211 l0 -212 33 3 32 3 3 83 3 82 87 0 c96 1 123 11 153 56 36
55 14 145 -43 175 -13 7 -77 14 -145 17 l-123 5 0 -212z m246 124 c8 -10 14
-31 14 -45 0 -52 -21 -64 -109 -68 l-81 -4 0 72 0 72 81 -4 c66 -3 83 -7 95
-23z"/>
<path d="M3653 2290 c-50 -30 -68 -66 -68 -135 0 -69 18 -105 68 -135 39 -24
116 -26 157 -5 35 18 37 26 13 48 -16 13 -20 14 -37 1 -47 -34 -136 3 -136 57
0 5 49 9 109 9 99 0 110 2 116 19 7 22 -2 64 -21 102 -28 56 -139 77 -201 39z"/>
<path d="M4054 2300 c-89 -36 -109 -193 -34 -265 55 -53 179 -43 211 16 12 23
5 33 -28 43 -16 5 -25 2 -33 -14 -8 -15 -21 -20 -50 -20 -55 0 -84 37 -77 103
2 26 12 56 22 67 22 24 77 27 99 4 11 -11 25 -14 46 -9 34 7 34 9 20 36 -23
41 -118 63 -176 39z"/>
<path d="M4842 2294 c-12 -8 -22 -10 -22 -5 0 6 -16 11 -35 11 l-36 0 3 -147
3 -148 32 -3 31 -3 4 111 c4 128 13 144 81 138 33 -3 39 0 44 20 3 15 1 27 -8
33 -22 14 -73 10 -97 -7z"/>
<path d="M6595 2301 c-11 -5 -33 -23 -50 -40 -25 -27 -30 -41 -33 -94 -2 -47
1 -70 16 -96 52 -94 213 -95 264 0 36 68 17 172 -39 214 -30 21 -124 31 -158
16z m100 -55 c26 -11 36 -23 44 -52 30 -107 -67 -186 -139 -114 -24 24 -27
114 -6 142 10 14 42 33 64 37 1 1 18 -5 37 -13z"/>
<path d="M8085 2300 c-11 -4 -33 -22 -49 -39 -24 -25 -31 -42 -34 -89 -8 -107
49 -172 150 -172 90 0 148 60 148 155 0 63 -26 113 -71 137 -35 19 -109 23
-144 8z m144 -103 c38 -102 -66 -190 -139 -117 -23 23 -27 93 -8 135 27 59
122 47 147 -18z"/>
<path d="M8512 2294 c-12 -8 -22 -10 -22 -5 0 6 -16 11 -35 11 l-35 0 0 -151
0 -150 33 3 32 3 3 112 c3 124 8 135 67 135 59 0 64 -11 67 -135 l3 -112 33
-3 32 -3 0 111 c0 124 -13 169 -56 189 -35 16 -96 14 -122 -5z"/>
<path d="M9546 2293 c-13 -13 -20 -15 -23 -5 -3 6 -18 12 -34 12 l-29 0 0
-150 0 -150 29 0 29 0 4 111 c4 127 12 142 83 137 35 -2 40 0 43 21 2 13 -2
28 -10 32 -22 15 -73 10 -92 -8z"/>
<path d="M9803 2290 c-42 -25 -62 -57 -69 -112 -13 -97 39 -168 129 -176 109
-9 167 44 167 153 0 73 -25 120 -75 141 -48 20 -114 18 -152 -6z m152 -81 c55
-105 -64 -212 -135 -122 -41 53 -15 156 43 165 37 6 77 -12 92 -43z"/>
<path d="M11181 2292 c-45 -24 -71 -74 -71 -137 0 -95 58 -155 148 -155 43 0
112 25 112 40 0 4 -10 14 -23 23 -20 13 -26 13 -42 1 -40 -30 -115 -3 -128 46
-5 19 -1 20 109 20 l114 0 0 40 c0 83 -57 140 -140 140 -25 0 -61 -8 -79 -18z"/>
<path d="M11602 2294 c-12 -8 -22 -10 -22 -5 0 6 -16 11 -35 11 l-36 0 3 -147
3 -148 33 -3 32 -3 0 105 c0 94 2 108 21 127 16 16 30 20 60 17 35 -3 40 -1
46 20 3 15 1 27 -8 33 -22 14 -73 10 -97 -7z"/>
<path d="M4352 2179 l3 -121 33 -29 c37 -34 94 -39 142 -14 27 14 30 14 30 0
0 -10 10 -15 30 -15 l30 0 0 150 0 150 -30 0 -30 0 0 -99 c0 -117 -14 -145
-73 -145 -61 0 -67 13 -67 135 l0 109 -36 0 -36 0 4 -121z"/>
<path d="M5042 2153 l3 -148 33 -3 32 -3 0 150 0 151 -35 0 -36 0 3 -147z"/>
<path d="M5500 2293 c0 -4 26 -68 57 -142 l57 -134 -18 -46 c-32 -85 -32 -83
5 -79 33 3 34 4 115 193 46 105 83 196 83 203 1 9 -9 12 -31 10 -29 -3 -34 -9
-58 -68 -15 -36 -35 -83 -44 -105 l-17 -40 -45 108 c-43 101 -48 107 -75 107
-16 0 -29 -3 -29 -7z"/>
<path d="M7132 2179 l3 -121 33 -29 c37 -34 94 -39 142 -14 27 14 30 14 30 0
0 -10 10 -15 30 -15 l30 0 0 150 0 150 -30 0 -30 0 0 -99 c0 -117 -14 -145
-73 -145 -61 0 -67 13 -67 135 l0 109 -36 0 -36 0 4 -121z"/>
<path d="M7820 2150 l0 -150 30 0 30 0 0 150 0 150 -30 0 -30 0 0 -150z"/>
<path d="M10136 2263 c8 -21 36 -89 61 -151 45 -112 46 -113 76 -110 30 3 33
8 89 148 32 79 58 145 58 147 0 2 -15 3 -33 3 -32 0 -33 -1 -72 -104 -22 -58
-42 -103 -46 -101 -3 3 -23 50 -44 105 -37 100 -38 100 -71 100 l-34 0 16 -37z"/>
<path d="M10522 2153 l3 -148 33 -3 32 -3 0 150 0 151 -35 0 -36 0 3 -147z"/>
</g>
</svg>
